<svg width="42" height="42" viewBox="0 0 42 42" fill="none" xmlns="http://www.w3.org/2000/svg">
<path d="M21.626 16.946C26.0055 18.4917 30.7285 18.4058 35.0651 16.7313C35.108 14.9709 34.6357 13.2105 33.8199 11.6219L33.3906 10.7632C33.2618 10.8061 33.09 10.892 33.0041 10.9779C29.054 12.867 24.5886 13.1247 20.4238 11.6219C17.5042 10.5914 14.3269 10.849 11.579 12.223L10.7202 12.6524C10.7632 12.7812 10.849 12.9529 10.9349 13.0388C11.4502 14.1551 11.8795 15.3573 12.1801 16.6025C15.1856 15.7438 18.5346 15.8296 21.626 16.946Z" fill="#22C55E"/>
<path d="M10.9349 29.8698L11.8795 29.3546C13.7935 28.3976 15.905 27.9343 18 27.9954C19.2888 28.033 20.5713 28.269 21.7978 28.7105C22.1973 28.8523 22.5981 28.9824 23 29.1011V33.6777C21.3376 33.3686 19.6547 33.3245 18 33.5375C16.2835 33.7585 14.5973 34.2562 12.9959 35.0221C12.91 35.108 12.7382 35.1939 12.6094 35.2368L12.1801 34.3781C11.4502 32.9612 11.0208 31.4155 10.9349 29.8698Z" fill="#22C55E"/>
<path d="M11.45 25.9197C15.0996 24.4169 19.1786 24.2881 22.914 25.6191C26.3489 26.8213 29.9985 27.036 33.4334 26.2631C33.3905 24.331 33.6481 22.4418 34.3351 20.5526C29.8267 21.8836 24.9749 21.7548 20.4666 20.1662C17.8905 19.2216 15.0567 19.2216 12.4805 20.0803C12.5234 21.9266 12.1799 23.8158 11.5359 25.662C11.5359 25.662 11.493 25.7909 11.45 25.9197Z" fill="#22C55E"/>
</svg>
